<svg xmlns="http://www.w3.org/2000/svg" version="1.1" xmlns:xlink="http://www.w3.org/1999/xlink" xmlns:svgjs="http://svgjs.dev/svgjs" width="1500" height="1140" viewBox="0 0 1500 1140"><g transform="matrix(1,0,0,1,0.13306387823490695,0.46210399382709966)"><svg viewBox="0 0 325 247" data-background-color="#90adbb" preserveAspectRatio="xMidYMid meet" height="1140" width="1500" xmlns="http://www.w3.org/2000/svg" xmlns:xlink="http://www.w3.org/1999/xlink"><g id="tight-bounds" transform="matrix(1,0,0,1,-0.018320351564085513,-0.10012253199587917)"><svg viewBox="0 0 325.05007467366187 247.2" height="247.2" width="325.05007467366187"><g><svg viewBox="0 0 325.05007467366187 247.2" height="247.2" width="325.05007467366187"><g><svg viewBox="0 0 325.05007467366187 247.2" height="247.2" width="325.05007467366187"><g id="textblocktransform"><svg viewBox="0 0 325.05007467366187 247.2" height="247.2" width="325.05007467366187" id="textblock"><g><svg viewBox="0 0 325.05007467366187 247.2" height="247.2" width="325.05007467366187"><g transform="matrix(1,0,0,1,0,0)"><svg width="325.05007467366187" viewBox="-1.2166663333200003 -36.461363635498 50.41666633332 38.347683041045" height="247.2" data-palette-color="#f6f6f6"><path d="M15-35.35L15-35.35Q16-35.35 17.3-34.98 18.6-34.6 19.4-33.75L19.4-33.75Q19.95-33.25 19.25-33.45L19.25-33.45Q18.55-33.55 17.82-33.77 17.1-34 16.25-34L16.25-34Q13.15-34.05 11.75-32.23 10.35-30.4 10.15-27.6L10.15-27.6Q10-25.65 10.23-23.73 10.45-21.8 10.75-19.9 11.05-18 11.28-16.1 11.5-14.2 11.3-12.25L11.3-12.25Q11.25-11.7 11.18-11.6 11.1-11.5 11.03-11.65 10.95-11.8 10.88-12.08 10.8-12.35 10.75-12.55L10.75-12.55Q10.45-14.55 10-16.57 9.55-18.6 9.15-20.65 8.75-22.7 8.53-24.75 8.3-26.8 8.5-28.9L8.5-28.9Q8.65-30.25 9.15-31.43 9.65-32.6 10.48-33.48 11.3-34.35 12.45-34.85 13.6-35.35 15-35.35ZM6.1-28.75L6.1-28.75Q6.25-30.1 6.8-31.48 7.35-32.85 8.28-33.98 9.2-35.1 10.53-35.77 11.85-36.45 13.5-36.45L13.5-36.45Q13.55-36.45 13.78-36.43 14-36.4 14.18-36.35 14.35-36.3 14.33-36.25 14.3-36.2 13.95-36.15L13.95-36.15Q12.6-35.9 11.45-35.25 10.3-34.6 9.45-33.65 8.6-32.7 8.08-31.53 7.55-30.35 7.45-29.1L7.45-29.1Q7.25-26.7 7.65-24.28 8.05-21.85 8.58-19.45 9.1-17.05 9.47-14.63 9.85-12.2 9.65-9.8L9.65-9.8Q9.55-8.85 9.2-7.8 8.85-6.75 8.28-5.85 7.7-4.95 6.85-4.33 6-3.7 4.95-3.55L4.95-3.55Q4.15-3.45 4.28-3.63 4.4-3.8 4.85-4.05L4.85-4.05Q6.65-5.05 7.33-6.4 8-7.75 8.2-9.75L8.2-9.75Q8.4-12.05 8.03-14.45 7.65-16.85 7.15-19.25 6.65-21.65 6.28-24.03 5.9-26.4 6.1-28.75ZM4.75-1.05L4.75-1.05Q6.85-1.05 8.3-1.83 9.75-2.6 10.7-3.88 11.65-5.15 12.15-6.83 12.65-8.5 12.8-10.3L12.8-10.3Q13-12.55 12.7-14.8 12.4-17.05 12.03-19.28 11.65-21.5 11.35-23.75 11.05-26 11.25-28.3L11.25-28.3Q11.45-30.6 12.68-31.95 13.9-33.3 16.35-33.3L16.35-33.3Q17.2-33.3 18.53-33 19.85-32.7 20.7-32.15L20.7-32.15Q21.6-31.55 20.55-31.8L20.55-31.8Q19.95-31.95 19-32.15 18.05-32.35 17.55-32.35L17.55-32.35Q15.6-32.35 14.2-31.5 12.8-30.65 12.6-28.5L12.6-28.5Q12.35-26.2 12.7-23.93 13.05-21.65 13.5-19.35 13.95-17.05 14.28-14.75 14.6-12.45 14.4-10.15L14.4-10.15Q14.25-8.25 13.65-6.45 13.05-4.65 11.95-3.2 10.85-1.75 9.22-0.88 7.6 0 5.4 0L5.4 0Q4.8 0 3.85-0.2 2.9-0.4 1.95-0.73 1-1.05 0.18-1.53-0.65-2-1.05-2.55L-1.05-2.55Q-1.5-3.05-0.75-2.8L-0.75-2.8Q0.1-2.35 1.33-1.7 2.55-1.05 4.75-1.05ZM4.45-2.8L4.45-2.8Q5.7-2.8 6.75-3.2 7.8-3.6 8.9-4.25L8.9-4.25 8.9-4.1Q8.9-3.65 8.43-3.23 7.95-2.8 7.25-2.45 6.55-2.1 5.68-1.9 4.8-1.7 3.9-1.7L3.9-1.7Q3.55-1.7 2.95-1.83 2.35-1.95 1.73-2.18 1.1-2.4 0.55-2.7 0-3-0.2-3.4L-0.2-3.4Q-0.75-4-0.55-4.08-0.35-4.15 0-3.9L0-3.9Q0.8-3.65 1.83-3.23 2.85-2.8 4.45-2.8ZM46.3-32.4L46.3-32.4Q46.3-31.5 45.87-30.5 45.45-29.5 44.85-28.55 44.25-27.6 43.5-26.83 42.75-26.05 42.05-25.55L42.05-25.55Q40.15-24.15 37.87-22.88 35.6-21.6 33.45-20.75L33.45-20.75Q33.35-20.7 33-20.58 32.65-20.45 32.55-20.55L32.55-20.55Q32.45-20.65 32.7-20.93 32.95-21.2 33.1-21.3L33.1-21.3Q33.45-21.65 34.02-22.15 34.6-22.65 35.22-23.13 35.85-23.6 36.47-24.05 37.1-24.5 37.6-24.75L37.6-24.75Q37.95-24.95 39.17-25.88 40.4-26.8 41.8-28.03 43.2-29.25 44.42-30.5 45.65-31.75 45.95-32.55L45.95-32.55Q46.15-32.9 46.25-32.8L46.25-32.8Q46.3-32.75 46.3-32.6 46.3-32.45 46.3-32.4ZM24.5-13.85L24.5-13.85Q26.35-13.6 28.1-13.13 29.85-12.65 31.35-11.35L31.35-11.35Q33.1-9.85 34.95-8.03 36.8-6.2 38.35-4.45L38.35-4.45Q38.45-4.35 38.65-4.08 38.85-3.8 38.75-3.65L38.75-3.65Q38.7-3.55 38.37-3.68 38.05-3.8 37.95-3.9L37.95-3.9Q37.5-4.15 36.87-4.58 36.25-5 35.6-5.5 34.95-6 34.35-6.48 33.75-6.95 33.35-7.35L33.35-7.35Q33.1-7.6 32.02-8.47 30.95-9.35 29.5-10.33 28.05-11.3 26.47-12.15 24.9-13 23.65-13.3L23.65-13.3Q23.25-13.4 23.27-13.8 23.3-14.2 23.35-14.5L23.35-14.5Q23.45-15.1 23.62-16 23.8-16.9 23.97-17.85 24.15-18.8 24.35-19.7 24.55-20.6 24.75-21.25L24.75-21.25Q24.9-21.7 25.3-23.5 25.7-25.3 26.1-27.5 26.5-29.7 26.7-31.75 26.9-33.8 26.65-34.75L26.65-34.75Q26.55-35.2 26.7-35.2L26.7-35.2Q26.8-35.2 26.85-35.08 26.9-34.95 27-34.85L27-34.85Q27.55-34 27.85-32.8 28.15-31.6 28.22-30.28 28.3-28.95 28.17-27.65 28.05-26.35 27.8-25.4L27.8-25.4Q27.25-23.3 26.55-21.23 25.85-19.15 25.05-17.05L25.05-17.05Q25.6-17.85 26.1-18.57 26.6-19.3 27-19.95L27-19.95 27.05-20.2Q27.55-22.6 28.27-25.05 29-27.5 29.1-30.35L29.1-30.35Q29.2-30.6 29.25-30.6L29.25-30.6Q29.3-30.6 29.35-30.5 29.4-30.4 29.45-30.3L29.45-30.3Q30-28.95 29.85-26.78 29.7-24.6 29.25-22.25L29.25-22.25Q29.85-22.75 30.42-23.2 31-23.65 31.7-24.1L31.7-24.1Q33.6-25.4 35.6-26.6 37.6-27.8 39.47-29.05 41.35-30.3 42.95-31.6 44.55-32.9 45.7-34.45L45.7-34.45Q45.85-34.6 45.9-34.5L45.9-34.5Q45.95-34.5 45.92-34.38 45.9-34.25 45.9-34.2L45.9-34.2Q45.15-32.15 43.62-30.58 42.1-29 40.17-27.65 38.25-26.3 36.15-25.1 34.05-23.9 32.15-22.55L32.15-22.55Q29.8-20.95 27.75-18.75 25.7-16.55 24.5-13.85ZM26.9-14.15L26.9-14.15Q26.65-14.15 26.22-14.18 25.8-14.2 25.45-14.15L25.45-14.15Q25.65-14.55 25.92-14.95 26.2-15.35 26.45-15.75L26.45-15.75Q26.75-16.15 27.17-16.63 27.6-17.1 28.02-17.48 28.45-17.85 28.77-18.03 29.1-18.2 29.2-18L29.2-18Q29.25-17.95 29.12-17.75 29-17.55 28.8-17.28 28.6-17 28.42-16.78 28.25-16.55 28.2-16.45L28.2-16.45Q27.65-15.75 27.4-15.23 27.15-14.7 26.9-14.15ZM46.05-0.6L46.05-0.6Q45.95-0.5 45.77-0.58 45.6-0.65 45.4-0.75L45.4-0.75Q43.95-1.4 42.67-2.35 41.4-3.3 40.2-4.4 39-5.5 37.82-6.68 36.65-7.85 35.45-9L35.45-9Q34.6-9.8 33.65-10.65 32.7-11.5 31.7-12.23 30.7-12.95 29.62-13.48 28.55-14 27.45-14.15L27.45-14.15Q28.1-15.1 29.55-16.3 31-17.5 32.7-18.65 34.4-19.8 36.05-20.85 37.7-21.9 38.75-22.55L38.75-22.55Q40.5-23.65 42.27-24.9 44.05-26.15 45.55-27.95L45.55-27.95Q45.7-28.15 45.85-28.1L45.85-28.1Q45.85-28 45.8-27.93 45.75-27.85 45.75-27.75L45.75-27.75Q45.5-26.5 44.27-25.13 43.05-23.75 41.5-22.5 39.95-21.25 38.35-20.18 36.75-19.1 35.8-18.45L35.8-18.45Q34.9-17.85 33.92-17.3 32.95-16.75 31.95-16.23 30.95-15.7 30.02-15.28 29.1-14.85 28.3-14.5L28.3-14.5Q29.6-14.5 31.27-13.7 32.95-12.9 34.6-11.78 36.25-10.65 37.65-9.43 39.05-8.2 39.8-7.4L39.8-7.4Q41.4-5.65 42.97-4 44.55-2.35 45.75-1.15L45.75-1.15Q46.15-0.75 46.05-0.6ZM25.55-36.1L25.55-36.1Q26.25-33.7 26-31.13 25.75-28.55 25.02-25.85 24.3-23.15 23.4-20.35 22.5-17.55 21.85-14.8L21.85-14.8Q21.45-13.05 21.22-11.15 21-9.25 21.07-7.33 21.15-5.4 21.52-3.58 21.9-1.75 22.75-0.2L22.75-0.2Q22.95 0.2 22.9 0.2L22.9 0.2Q22.8 0.2 22.7 0.1 22.6 0 22.55 0L22.55 0Q21.15-1.65 20.5-3.58 19.85-5.5 19.7-7.55 19.55-9.6 19.82-11.7 20.1-13.8 20.55-15.8L20.55-15.8Q21.2-18.55 22.05-21.28 22.9-24 23.62-26.58 24.35-29.15 24.85-31.55 25.35-33.95 25.3-36.15L25.3-36.15Q25.3-36.45 25.35-36.45L25.35-36.45Q25.4-36.5 25.47-36.33 25.55-36.15 25.55-36.1ZM49.2 1L49.2 1Q49.2 1.1 49.1 1.15 49 1.2 48.9 1.25L48.9 1.25Q47 1.95 45.22 1.88 43.45 1.8 41.77 1.28 40.1 0.75 38.57-0.1 37.05-0.95 35.7-1.8L35.7-1.8Q34.35-2.65 33.1-3.75 31.85-4.85 30.65-6 29.45-7.15 28.27-8.25 27.1-9.35 25.95-10.2L25.95-10.2 24.4-5Q24.3-4.75 24.22-4.55 24.15-4.35 24.05-4.4L24.05-4.4Q23.95-4.45 23.92-4.67 23.9-4.9 23.9-5.15L23.9-5.15Q23.95-6.6 24.15-8.1 24.35-9.6 24.65-11.1L24.65-11.1Q24.35-11.3 23.9-11.55 23.45-11.8 23.05-12.05L23.05-12.05Q22.95-12.1 22.8-12.23 22.65-12.35 22.7-12.45L22.7-12.45Q22.7-12.5 22.95-12.5L22.95-12.5Q24.75-12.35 26.47-11.33 28.2-10.3 29.92-8.88 31.65-7.45 33.4-5.8 35.15-4.15 37.05-2.65L37.05-2.65Q39.45-0.8 42.55 0.28 45.65 1.35 48.85 0.95L48.85 0.95Q49.2 0.85 49.2 1ZM24.3 0.2L24.3 0.2Q24.2 0.2 24 0.1L24 0.1Q23.9 0.05 23.85-0.05L23.85-0.05Q23.2-0.8 22.82-1.45 22.45-2.1 22.2-3.55L22.2-3.55Q22.1-4.1 22.07-4.95 22.05-5.8 22.1-6.6 22.15-7.4 22.27-7.95 22.4-8.5 22.6-8.5L22.6-8.5Q22.65-8.5 22.72-8.25 22.8-8 22.85-7.68 22.9-7.35 22.92-7.03 22.95-6.7 22.95-6.6L22.95-6.6Q23.05-5.5 23.12-4.8 23.2-4.1 23.3-3.55L23.3-3.55Q23.55-1.95 24.3-0.2L24.3-0.2Q24.35-0.1 24.37 0.05 24.4 0.2 24.3 0.2ZM42.4-0.8L42.4-0.8Q42.75-0.75 43.27-0.63 43.8-0.5 44.1-0.4L44.1-0.4Q45.4-0.05 46.27 0.13 47.15 0.3 48.35 0.35L48.35 0.35Q48.45 0.35 48.62 0.35 48.8 0.35 48.8 0.45L48.8 0.45Q48.8 0.65 48.3 0.7L48.3 0.7Q47.7 0.8 47.25 0.8 46.8 0.8 46.1 0.75L46.1 0.75Q45.7 0.7 45.15 0.6 44.6 0.5 44.05 0.33 43.5 0.15 43.02-0.03 42.55-0.2 42.35-0.4L42.35-0.4Q42.15-0.6 42.2-0.75L42.2-0.75Q42.2-0.8 42.4-0.8Z" opacity="1" transform="matrix(1,0,0,1,0,0)" fill="#f6f6f6" class="wordmark-text-0" data-fill-palette-color="primary" id="text-0"></path></svg></g></svg></g></svg></g></svg></g><g></g></svg></g><defs></defs></svg><rect width="325.05007467366187" height="247.2" fill="none" stroke="none" visibility="hidden"></rect></g></svg></g></svg>